HIERARCHY
ROOT Hips
{
    OFFSET   0.000000   0.000000   0.000000
    CHANNELS 6 Xposition Yposition Zposition Zrotation Xrotation Yrotation
    JOINT Chest
    {
        OFFSET   0.000000   8.007230   0.000000
        CHANNELS 3 Zrotation Xrotation Yrotation
        JOINT Chest2
        {
            OFFSET   0.000000  22.077100   0.000000
            CHANNELS 3 Zrotation Xrotation Yrotation
            JOINT Neck
            {
                OFFSET   0.000000  23.255100   0.000000
                CHANNELS 3 Zrotation Xrotation Yrotation
                JOINT Head
                {
                    OFFSET   0.000000  14.370100   1.956600
                    CHANNELS 3 Zrotation Xrotation Yrotation
                    End Site
                    {
                        OFFSET   0.000000  19.566000   0.000000
                    }
                }
            }
            JOINT LeftCollar
            {
                OFFSET   3.911900  19.017000  -0.467063
                CHANNELS 3 Zrotation Xrotation Yrotation
                JOINT LeftShoulder
                {
                    OFFSET  10.383700   0.000000   0.000000
                    CHANNELS 3 Zrotation Xrotation Yrotation
                    JOINT LeftElbow
                    {
                        OFFSET  26.662100   0.001193   0.000980
                        CHANNELS 3 Zrotation Xrotation Yrotation
                        JOINT LeftWrist
                        {
                            OFFSET  28.869000  -0.000059  -0.000082
                            CHANNELS 3 Zrotation Xrotation Yrotation
                            JOINT LeftFinger0
                            {
                                OFFSET   2.044650  -2.323450   3.252850
                                CHANNELS 3 Zrotation Xrotation Yrotation
                                JOINT LeftFinger01
                                {
                                    OFFSET   3.088130   0.000000   0.000000
                                    CHANNELS 3 Zrotation Xrotation Yrotation
                                    JOINT LeftFinger02
                                    {
                                        OFFSET   2.639460   0.000000   0.000000
                                        CHANNELS 3 Zrotation Xrotation Yrotation
                                        End Site
                                        {
                                            OFFSET   2.582190   0.000000   0.000000
                                        }
                                    }
                                }
                            }
                            JOINT LeftFinger1
                            {
                                OFFSET   8.364480   0.000000   3.252850
                                CHANNELS 3 Zrotation Xrotation Yrotation
                                JOINT LeftFinger11
                                {
                                    OFFSET   4.646930   0.000000   0.000000
                                    CHANNELS 3 Zrotation Xrotation Yrotation
                                    JOINT LeftFinger12
                                    {
                                        OFFSET   2.323470   0.000000   0.000000
                                        CHANNELS 3 Zrotation Xrotation Yrotation
                                        End Site
                                        {
                                            OFFSET   2.273050   0.000000   0.000000
                                        }
                                    }
                                }
                            }
                            JOINT LeftFinger2
                            {
                                OFFSET   8.364490   0.000016   1.078090
                                CHANNELS 3 Zrotation Xrotation Yrotation
                                JOINT LeftFinger21
                                {
                                    OFFSET   5.111610   0.000000   0.000000
                                    CHANNELS 3 Zrotation Xrotation Yrotation
                                    JOINT LeftFinger22
                                    {
                                        OFFSET   2.788150   0.000016   0.000000
                                        CHANNELS 3 Zrotation Xrotation Yrotation
                                        End Site
                                        {
                                            OFFSET   2.727660   0.000000   0.000000
                                        }
                                    }
                                }
                            }
                            JOINT LeftFinger3
                            {
                                OFFSET   7.899780   0.000015  -1.078090
                                CHANNELS 3 Zrotation Xrotation Yrotation
                                JOINT LeftFinger31
                                {
                                    OFFSET   4.646930   0.000000   0.000000
                                    CHANNELS 3 Zrotation Xrotation Yrotation
                                    JOINT LeftFinger32
                                    {
                                        OFFSET   2.323470   0.000000   0.000000
                                        CHANNELS 3 Zrotation Xrotation Yrotation
                                        End Site
                                        {
                                            OFFSET   2.273050   0.000000   0.000000
                                        }
                                    }
                                }
                            }
                            JOINT LeftFinger4
                            {
                                OFFSET   7.435090   0.000000  -3.252850
                                CHANNELS 3 Zrotation Xrotation Yrotation
                                JOINT LeftFinger41
                                {
                                    OFFSET   3.717550   0.000000   0.000000
                                    CHANNELS 3 Zrotation Xrotation Yrotation
                                    JOINT LeftFinger42
                                    {
                                        OFFSET   1.858770   0.000000   0.000000
                                        CHANNELS 3 Zrotation Xrotation Yrotation
                                        End Site
                                        {
                                            OFFSET   1.818440   0.000000   0.000000
                                        }
                                    }
                                }
                            }
                        }
                    }
                }
            }
            JOINT RightCollar
            {
                OFFSET  -3.911910  19.017000  -0.467062
                CHANNELS 3 Zrotation Xrotation Yrotation
                JOINT RightShoulder
                {
                    OFFSET -10.383700   0.000014   0.000000
                    CHANNELS 3 Zrotation Xrotation Yrotation
                    JOINT RightElbow
                    {
                        OFFSET -26.662100   0.001225   0.001091
                        CHANNELS 3 Zrotation Xrotation Yrotation
                        JOINT RightWrist
                        {
                            OFFSET -28.869000  -0.000020  -0.000085
                            CHANNELS 3 Zrotation Xrotation Yrotation
                            JOINT RightFinger0
                            {
                                OFFSET  -2.044650  -2.323490   3.252850
                                CHANNELS 3 Zrotation Xrotation Yrotation
                                JOINT RightFinger01
                                {
                                    OFFSET  -3.088130   0.000000   0.000000
                                    CHANNELS 3 Zrotation Xrotation Yrotation
                                    JOINT RightFinger02
                                    {
                                        OFFSET  -2.639460   0.000000   0.000000
                                        CHANNELS 3 Zrotation Xrotation Yrotation
                                        End Site
                                        {
                                            OFFSET  -2.582190   0.000000   0.000000
                                        }
                                    }
                                }
                            }
                            JOINT RightFinger1
                            {
                                OFFSET  -8.364480   0.000000   3.252850
                                CHANNELS 3 Zrotation Xrotation Yrotation
                                JOINT RightFinger11
                                {
                                    OFFSET  -4.646930   0.000000   0.000000
                                    CHANNELS 3 Zrotation Xrotation Yrotation
                                    JOINT RightFinger12
                                    {
                                        OFFSET  -2.323470   0.000000   0.000000
                                        CHANNELS 3 Zrotation Xrotation Yrotation
                                        End Site
                                        {
                                            OFFSET  -2.273050   0.000000   0.000000
                                        }
                                    }
                                }
                            }
                            JOINT RightFinger2
                            {
                                OFFSET  -8.364480   0.000000   1.078090
                                CHANNELS 3 Zrotation Xrotation Yrotation
                                JOINT RightFinger21
                                {
                                    OFFSET  -5.111620   0.000000   0.000000
                                    CHANNELS 3 Zrotation Xrotation Yrotation
                                    JOINT RightFinger22
                                    {
                                        OFFSET  -2.788160   0.000000   0.000000
                                        CHANNELS 3 Zrotation Xrotation Yrotation
                                        End Site
                                        {
                                            OFFSET  -2.727660   0.000000   0.000000
                                        }
                                    }
                                }
                            }
                            JOINT RightFinger3
                            {
                                OFFSET  -7.899780   0.000000  -1.078090
                                CHANNELS 3 Zrotation Xrotation Yrotation
                                JOINT RightFinger31
                                {
                                    OFFSET  -4.646930   0.000000   0.000000
                                    CHANNELS 3 Zrotation Xrotation Yrotation
                                    JOINT RightFinger32
                                    {
                                        OFFSET  -2.323470   0.000000   0.000000
                                        CHANNELS 3 Zrotation Xrotation Yrotation
                                        End Site
                                        {
                                            OFFSET  -2.273050   0.000000   0.000000
                                        }
                                    }
                                }
                            }
                            JOINT RightFinger4
                            {
                                OFFSET  -7.435090   0.000000  -3.252850
                                CHANNELS 3 Zrotation Xrotation Yrotation
                                JOINT RightFinger41
                                {
                                    OFFSET  -3.717550   0.000000   0.000000
                                    CHANNELS 3 Zrotation Xrotation Yrotation
                                    JOINT RightFinger42
                                    {
                                        OFFSET  -1.858760   0.000000   0.000000
                                        CHANNELS 3 Zrotation Xrotation Yrotation
                                        End Site
                                        {
                                            OFFSET  -1.818440   0.000000   0.000000
                                        }
                                    }
                                }
                            }
                        }
                    }
                }
            }
        }
    }
    JOINT LeftHip
    {
        OFFSET   9.783030   0.000000   0.000000
        CHANNELS 3 Zrotation Xrotation Yrotation
        JOINT LeftKnee
        {
            OFFSET   0.000063 -41.789100   0.000608
            CHANNELS 3 Zrotation Xrotation Yrotation
            JOINT LeftAnkle
            {
                OFFSET   0.000048 -41.133200  -0.000184
                CHANNELS 3 Zrotation Xrotation Yrotation
                JOINT LeftToe
                {
                    OFFSET   0.000000  -6.358960  14.674500
                    CHANNELS 3 Zrotation Xrotation Yrotation
                    End Site
                    {
                        OFFSET   0.000000   0.000000   3.913200
                    }
                }
            }
        }
    }
    JOINT RightHip
    {
        OFFSET  -9.783030   0.000000   0.000000
        CHANNELS 3 Zrotation Xrotation Yrotation
        JOINT RightKnee
        {
            OFFSET   0.000071 -41.789100   0.001239
            CHANNELS 3 Zrotation Xrotation Yrotation
            JOINT RightAnkle
            {
                OFFSET   0.000037 -41.133200  -0.000166
                CHANNELS 3 Zrotation Xrotation Yrotation
                JOINT RightToe
                {
                    OFFSET   0.000000  -6.358960  14.674500
                    CHANNELS 3 Zrotation Xrotation Yrotation
                    End Site
                    {
                        OFFSET   0.000000   0.000000   3.913200
                    }
                }
            }
        }
    }
}
MOTION
Frames: 4
Frame Time:   0.016667
 -0.173357  89.535100  -0.898918  -2.956940  -7.366000   0.147835   1.719310   3.795800  -0.505283   3.483710   7.574500  -1.128970   0.138779  -1.275930   0.001447   0.228251  -2.587160   7.054410  -5.165040   1.365430  -1.781750 -59.162700  -7.471240 -66.425800  -4.892750 -21.670500 -87.500700  24.833900  -5.230770  -2.373310  39.277100  13.843900 -49.864900  -3.596350   0.001203   0.000110   3.201820   0.005677  -0.001395  -1.528650   0.040604  -1.779780  -1.261190   0.001190  -0.003040  -0.882837   0.001958  -0.002650  -1.976880   0.055418  -1.778300  -1.983090  -0.001617  -0.001304  -1.320730   0.000125   0.004375  -1.674540   0.044047  -1.723550  -1.678290   0.001415  -0.000794  -1.117760  -0.000278   0.001410  -2.640590  -0.001801  -0.087247  -3.965220   0.004072  -0.008705  -2.640810   0.002039   0.001190   2.408100  -1.996470  10.215400  46.663600 -16.340000  59.257000 -27.954100 -27.666900  65.242300 -24.814000   0.809114  13.460200 -50.912000  27.519800  47.981400  -1.527530  -0.002104   0.000000  -5.763790  -0.007343   0.000975   0.566652  -0.043158  -4.154110   0.393540   0.007713   0.010303   0.275463   0.004560   0.001098   1.212390  -0.103952  -4.829780   1.219070   0.003357   0.006115   0.811891   0.001072   0.007782   0.945709  -0.108073  -6.480010   0.955234   0.001074   0.003201   0.636211   0.007102   0.003791   3.601330  -0.521377  -8.235440   5.458120   0.003215   0.003144   3.635090   0.001266   0.002834   4.294110  10.775800   4.696760   1.104220   0.119159  13.468100  -2.823210  -2.210620   3.667940   0.000000   0.000000  -0.000000   1.426850   5.834660  -4.679850   1.143690   4.816080  -8.453700  -2.271780  -2.745120  -3.056170   0.000000   0.000000   0.000000
 -0.188148  89.535100  -0.852411  -2.954380  -7.295310   0.148114   1.705880   3.724930  -0.508484   3.455860   7.432850  -1.131720   0.152170  -1.246490   0.001757   0.250249  -2.527430   7.100710  -5.071470   1.634930  -1.623800 -59.827000  -8.545170 -65.964300  -4.885950 -21.687800 -87.499300  25.015500  -5.251690  -2.508130  39.369100  14.024000 -49.920800  -3.605650   0.001222   0.000109   3.197170   0.005679  -0.001405  -1.771950   0.052537  -1.962570  -1.453550   0.001203  -0.003080  -1.017520   0.001968  -0.002767  -2.161340   0.067068  -1.960080  -2.166250  -0.001552  -0.001362  -1.442730   0.000134   0.004365  -1.822490   0.059596  -2.050860  -1.826850   0.001424  -0.000868  -1.216700  -0.000276   0.001378  -2.548970   0.027215  -0.710105  -3.825590   0.003855  -0.009584  -2.547820   0.001943   0.000977   2.440060  -1.835360  10.130200  47.012000 -17.358600  58.637500 -27.906500 -27.704400  65.215400 -25.441600   0.402664  13.828500 -51.024000  27.621800  48.010400  -1.175480  -0.003996   0.000000  -5.587760  -0.007347   0.000958   0.652574  -0.049392  -4.169260   0.536152   0.007751   0.010444   0.375278   0.004564   0.001146   1.390590  -0.119759  -4.835390   1.397030   0.003350   0.006299   0.930411   0.001551   0.007927   1.121050  -0.128456  -6.489490   1.128930   0.001601   0.003344   0.751891   0.007215   0.003984   3.686820  -0.535892  -8.262330   5.587960   0.003345   0.003295   3.721540   0.001291   0.003056   4.303430  10.759100   4.693530   1.095210   0.088054  13.488300  -2.831540  -2.223880   3.656040  -0.000000   0.000000   0.000000   1.436440   5.808540  -4.678870   1.147200   4.792330  -8.460000  -2.280130  -2.767450  -3.052100   0.000000   0.000000   0.000000
 -0.204528  89.535100  -0.805012  -2.949840  -7.230870   0.159086   1.686160   3.658230  -0.509381   3.415500   7.299690  -1.130850   0.181372  -1.215380   0.002039   0.298150  -2.464590   7.124640  -5.019930   1.875700  -1.557410 -60.417300  -9.574250 -65.467100  -4.750730 -21.729600 -87.394400  25.333200  -5.273370  -2.638410  39.421100  14.224800 -50.052300  -3.754960   0.001226   0.000121   3.122510   0.005677  -0.001409  -2.148930   0.071532  -2.203330  -1.763740   0.001216  -0.003125  -1.234650   0.001992  -0.002881  -2.448230   0.084808  -2.199500  -2.455290  -0.001458  -0.001422  -1.635230   0.000144   0.004355  -2.191990   0.071119  -2.106570  -2.199110   0.001424  -0.000949  -1.464620  -0.000270   0.001345  -2.554590   0.051811  -1.233760  -3.834310   0.003643  -0.009573  -2.553630   0.001847   0.000754   2.483590  -1.704150  10.058400  47.395400 -18.328200  57.919700 -27.910700 -27.743700  65.219700 -26.074700  -0.028219  14.187800 -51.156800  27.828800  48.365400  -0.601982  -0.004832   0.000021  -5.301000  -0.007360   0.000943   1.046910  -0.077722  -4.132530   0.865719   0.007792   0.010582   0.605975   0.004569   0.001201   1.803980  -0.151716  -4.751110   1.812390   0.003344   0.006479   1.207050   0.002068   0.008074   1.522590  -0.173585  -6.454050   1.533430   0.002160   0.003497   1.021290   0.007310   0.004189   3.955960  -0.576844  -8.282310   5.996390   0.003480   0.003439   3.993570   0.001322   0.003279   4.309580  10.752600   4.677370   1.087730   0.036123  13.519900  -2.836530  -2.228350   3.635460  -0.000000   0.000000   0.000000   1.444830   5.796510  -4.689180   1.149000   4.759070  -8.462330  -2.284200  -2.787600  -3.052890   0.000000   0.000000  -0.000000
 -0.221004  89.535200  -0.759288  -2.942820  -7.169540   0.183761   1.665280   3.597620  -0.510947   3.372660   7.178680  -1.130010   0.215522  -1.182700   0.002308   0.354202  -2.398590   7.143100  -4.996960   2.094900  -1.514000 -60.967200 -10.548700 -64.942000  -4.471020 -21.779300 -87.181400  25.698200  -5.294760  -2.768970  39.447600  14.384900 -50.221000  -3.985230   0.001227   0.000135   3.007380   0.005675  -0.001411  -2.663700   0.105879  -2.503790  -2.186420   0.001228  -0.003170  -1.530510   0.002018  -0.002996  -2.820970   0.114029  -2.499350  -2.829790  -0.001335  -0.001482  -1.884650   0.000153   0.004346  -2.655620   0.088156  -2.155760  -2.665170   0.001425  -0.001032  -1.775010  -0.000263   0.001314  -2.598600   0.071488  -1.507590  -3.895330   0.003435  -0.009499  -2.594300   0.001751   0.000518   2.538910  -1.589450  10.004600  47.744300 -19.228400  57.141600 -27.940100 -27.809300  65.209400 -26.762300  -0.315959  14.557900 -51.224100  28.032600  48.834900  -0.008412  -0.005446   0.000065  -5.004200  -0.007373   0.000930   1.518670  -0.109946  -4.048270   1.247540   0.007831   0.010721   0.873252   0.004576   0.001255   2.272140  -0.185934  -4.606970   2.282010   0.003342   0.006659   1.519820   0.002588   0.008222   1.979560  -0.223905  -6.390680   1.993400   0.002719   0.003653   1.327610   0.007405   0.004397   4.254880  -0.621339  -8.288490   6.449860   0.003617   0.003585   4.295600   0.001357   0.003502   4.315200  10.739800   4.654850   1.083570   0.000806  13.550300  -2.841730  -2.233820   3.609950   0.000000   0.000000  -0.000000   1.452420   5.789690  -4.699530   1.151360   4.721960  -8.467860  -2.287370  -2.806400  -3.058170   0.000000   0.000000   0.000000
